<svg xmlns="http://www.w3.org/2000/svg" width="900" height="650" viewBox="0 0 900 650" role="img" aria-label="Predicted protein structure preview for PDBP0043">
  <rect width="100%" height="100%" fill="#f8fafc"/>
  <text x="36" y="48" font-family="Arial, sans-serif" font-size="24" font-weight="700" fill="#1f2937">PDBP0043</text>
  <text x="36" y="78" font-family="Arial, sans-serif" font-size="15" fill="#64748b">Predicted structure preview generated from local PDB backbone coordinates</text>
  <g filter="drop-shadow(0 12px 18px rgba(15, 23, 42, 0.18))">
    <polyline points="448.1,494.1 438.5,483.4 440.0,451.5 445.8,438.1 419.2,419.8 423.6,410.6 445.8,388.6 448.2,358.6 453.5,354.8 456.9,328.4 431.7,326.4 439.4,298.7 456.5,272.0 439.0,246.1 443.0,233.6 429.4,259.5 401.3,250.5 384.7,230.5 353.8,221.9 350.3,250.7 352.0,275.4 378.1,293.9 374.4,325.0 397.3,343.1 400.0,374.8 415.2,383.8 418.1,414.5 397.3,423.3 376.4,401.8 366.3,378.3 363.8,349.9 350.7,321.5 368.1,298.5 358.3,268.1 362.7,241.5 337.3,231.5 330.3,199.8 343.1,199.8 371.1,209.3 368.9,239.4 375.4,263.2 353.6,286.5 357.8,315.7 332.6,333.8 330.2,362.5 329.3,355.1 302.6,372.3 273.4,359.5 255.0,380.3 230.6,377.0 244.6,387.2 276.3,387.1 282.6,360.4 311.4,348.0 306.8,323.7 335.1,311.4 320.5,304.6 299.6,287.0 300.2,256.3 299.4,240.0 270.6,226.8 269.7,209.2 295.5,225.8 281.6,254.5 291.4,276.0 268.1,278.3 267.4,306.1 268.4,300.9 245.5,322.6 219.3,316.7 228.2,290.9 230.3,304.8 248.5,285.8 268.2,295.8 282.6,279.8 313.3,284.4 303.0,307.6 289.2,323.0 259.2,317.6 237.9,313.6 227.7,283.3 211.4,278.9 192.7,297.9 177.8,282.9 158.7,308.5 129.7,316.3 124.0,306.8 155.4,300.3 158.8,324.9 189.2,330.1 190.2,359.2 218.4,368.3 222.6,387.2 228.4,360.0 253.6,353.2 283.2,356.4 308.3,366.9 327.5,342.8 358.3,345.8 375.1,330.1 392.9,307.2 416.1,288.7 430.7,265.2 460.1,262.6 489.4,254.3 477.3,245.8 466.3,276.0 436.3,287.7 437.0,313.7 413.6,335.9 406.4,360.6 393.6,384.1 390.1,404.6 370.3,403.9 363.7,372.8 363.0,380.3 394.6,387.5 402.9,360.6 423.4,343.9 434.2,316.2 458.5,318.3 469.8,343.7 474.5,326.5 506.5,325.9 521.4,297.6 525.8,282.7 526.4,253.0 552.3,245.4 531.8,241.9 518.0,216.4 542.5,206.3 551.0,176.3 582.0,185.0 577.4,203.8 569.9,199.3 551.1,223.5 547.7,233.5 532.3,260.4 508.9,274.9 492.0,301.1 497.0,325.8 481.6,353.1 499.3,380.2 490.7,408.1 503.6,426.1 497.2,438.2 505.3,415.4 525.3,436.0 545.1,434.7 548.2,403.0 551.4,407.4 574.9,428.6 588.6,408.7 587.2,383.7 598.8,400.8 623.5,411.6 641.0,384.6 663.0,399.4 643.8,398.5 650.5,367.2 681.0,374.3 670.0,390.8 639.6,381.7 645.7,350.3 675.2,351.8 673.9,323.2 667.0,307.5 674.3,325.6 700.6,342.2 726.5,337.7 757.3,347.0 755.4,352.4 732.6,375.0 754.0,397.3 757.3,380.0 725.9,381.0 718.2,383.7 689.1,395.4 670.8,400.2 640.8,411.1 623.8,400.7 596.4,415.6 574.1,399.4 543.0,403.9 527.0,399.1 554.0,387.2 581.0,398.3 605.9,379.7 629.1,386.2 653.9,366.3 676.5,362.7 703.1,344.9 723.5,341.6 750.4,327.8 771.5,309.5 759.4,313.4 757.1,295.3 727.5,282.2 706.5,297.0 694.0,278.9 668.1,273.4 686.0,265.9 704.9,246.9 678.1,231.1 669.4,228.0 699.0,216.7 696.1,195.8 720.0,211.1 740.8,214.5 758.6,240.8 776.0,244.6 774.7,273.1 746.7,276.4 733.2,294.1 704.7,303.4 679.9,315.9 654.2,331.2 635.4,341.5 605.6,352.6 583.2,356.3 559.4,376.3 532.1,371.9 507.7,392.8 497.0,400.7 511.5,386.3 519.5,356.2 550.8,349.3 568.6,323.6 597.0,322.8 620.1,303.4 641.1,296.4 665.0,278.1 693.8,267.6 717.1,250.9 748.8,246.1 765.4,271.6 767.1,273.1 742.4,252.5 720.9,262.3 693.9,274.4 676.0,252.8 690.9,229.0 684.9,242.2 667.0,230.5 643.3,251.7 615.9,260.2 592.6,276.6 579.7,294.7 549.0,302.8 542.5,331.5 512.7,342.0 500.8,367.4 469.4,373.1 460.8,401.6 438.2,397.9 435.9,429.2 453.9,456.0 470.8,446.1 468.8,413.8 474.2,389.8 473.7,358.2 502.2,344.5 502.2,316.6 531.2,303.4 545.7,276.6 573.4,262.8 574.0,242.7 603.1,228.6 618.3,209.0 635.9,195.4 628.7,176.5 600.6,169.4 595.5,143.0 609.9,156.4 588.5,163.4 612.0,177.1 615.9,197.8 584.3,204.6 589.4,211.5 615.2,229.7 598.5,247.1 572.5,250.4 591.9,259.9 606.0,280.6 577.5,292.2 566.8,295.4 593.9,310.9 598.4,329.2 568.5,337.1 553.9,337.7 576.9,345.1 596.0,363.6 581.6,376.9 552.3,380.0 565.7,394.0 581.4,415.4 557.0,422.7 535.5,426.0 556.6,444.8 558.0,462.6 525.7,462.3 523.0,473.3 540.6,498.9 524.1,504.3 505.4,527.5 530.8,542.9 548.2,539.6 523.6,550.7 515.7,574.8 546.4,585.0 551.5,580.8 576.0,560.9 587.8,548.0 606.5,521.8 636.9,526.2 643.9,509.1 665.8,485.8 679.2,472.1 663.1,444.6 633.7,457.6 631.7,457.6 612.3,432.0 593.3,440.6 590.7,470.8 583.2,459.5 560.9,439.9 549.3,463.6 546.2,482.9 532.0,459.4 510.9,454.4 505.7,486.4 499.2,486.7 478.7,462.2 464.6,477.8 462.2,504.1 448.8,486.4 427.2,474.9 419.9,505.0 415.7,516.1" fill="none" stroke="#0f766e" stroke-width="5.5" stroke-linecap="round" stroke-linejoin="round" opacity="0.72"/>
    <polyline points="448.1,494.1 438.5,483.4 440.0,451.5 445.8,438.1 419.2,419.8 423.6,410.6 445.8,388.6 448.2,358.6 453.5,354.8 456.9,328.4 431.7,326.4 439.4,298.7 456.5,272.0 439.0,246.1 443.0,233.6 429.4,259.5 401.3,250.5 384.7,230.5 353.8,221.9 350.3,250.7 352.0,275.4 378.1,293.9 374.4,325.0 397.3,343.1 400.0,374.8 415.2,383.8 418.1,414.5 397.3,423.3 376.4,401.8 366.3,378.3 363.8,349.9 350.7,321.5 368.1,298.5 358.3,268.1 362.7,241.5 337.3,231.5 330.3,199.8 343.1,199.8 371.1,209.3 368.9,239.4 375.4,263.2 353.6,286.5 357.8,315.7 332.6,333.8 330.2,362.5 329.3,355.1 302.6,372.3 273.4,359.5 255.0,380.3 230.6,377.0 244.6,387.2 276.3,387.1 282.6,360.4 311.4,348.0 306.8,323.7 335.1,311.4 320.5,304.6 299.6,287.0 300.2,256.3 299.4,240.0 270.6,226.8 269.7,209.2 295.5,225.8 281.6,254.5 291.4,276.0 268.1,278.3 267.4,306.1 268.4,300.9 245.5,322.6 219.3,316.7 228.2,290.9 230.3,304.8 248.5,285.8 268.2,295.8 282.6,279.8 313.3,284.4 303.0,307.6 289.2,323.0 259.2,317.6 237.9,313.6 227.7,283.3 211.4,278.9 192.7,297.9 177.8,282.9 158.7,308.5 129.7,316.3 124.0,306.8 155.4,300.3 158.8,324.9 189.2,330.1 190.2,359.2 218.4,368.3 222.6,387.2 228.4,360.0 253.6,353.2 283.2,356.4 308.3,366.9 327.5,342.8 358.3,345.8 375.1,330.1 392.9,307.2 416.1,288.7 430.7,265.2 460.1,262.6 489.4,254.3 477.3,245.8 466.3,276.0 436.3,287.7 437.0,313.7 413.6,335.9 406.4,360.6 393.6,384.1 390.1,404.6 370.3,403.9 363.7,372.8 363.0,380.3 394.6,387.5 402.9,360.6 423.4,343.9 434.2,316.2 458.5,318.3 469.8,343.7 474.5,326.5 506.5,325.9 521.4,297.6 525.8,282.7 526.4,253.0 552.3,245.4 531.8,241.9 518.0,216.4 542.5,206.3 551.0,176.3 582.0,185.0 577.4,203.8 569.9,199.3 551.1,223.5 547.7,233.5 532.3,260.4 508.9,274.9 492.0,301.1 497.0,325.8 481.6,353.1 499.3,380.2 490.7,408.1 503.6,426.1 497.2,438.2 505.3,415.4 525.3,436.0 545.1,434.7 548.2,403.0 551.4,407.4 574.9,428.6 588.6,408.7 587.2,383.7 598.8,400.8 623.5,411.6 641.0,384.6 663.0,399.4 643.8,398.5 650.5,367.2 681.0,374.3 670.0,390.8 639.6,381.7 645.7,350.3 675.2,351.8 673.9,323.2 667.0,307.5 674.3,325.6 700.6,342.2 726.5,337.7 757.3,347.0 755.4,352.4 732.6,375.0 754.0,397.3 757.3,380.0 725.9,381.0 718.2,383.7 689.1,395.4 670.8,400.2 640.8,411.1 623.8,400.7 596.4,415.6 574.1,399.4 543.0,403.9 527.0,399.1 554.0,387.2 581.0,398.3 605.9,379.7 629.1,386.2 653.9,366.3 676.5,362.7 703.1,344.9 723.5,341.6 750.4,327.8 771.5,309.5 759.4,313.4 757.1,295.3 727.5,282.2 706.5,297.0 694.0,278.9 668.1,273.4 686.0,265.9 704.9,246.9 678.1,231.1 669.4,228.0 699.0,216.7 696.1,195.8 720.0,211.1 740.8,214.5 758.6,240.8 776.0,244.6 774.7,273.1 746.7,276.4 733.2,294.1 704.7,303.4 679.9,315.9 654.2,331.2 635.4,341.5 605.6,352.6 583.2,356.3 559.4,376.3 532.1,371.9 507.7,392.8 497.0,400.7 511.5,386.3 519.5,356.2 550.8,349.3 568.6,323.6 597.0,322.8 620.1,303.4 641.1,296.4 665.0,278.1 693.8,267.6 717.1,250.9 748.8,246.1 765.4,271.6 767.1,273.1 742.4,252.5 720.9,262.3 693.9,274.4 676.0,252.8 690.9,229.0 684.9,242.2 667.0,230.5 643.3,251.7 615.9,260.2 592.6,276.6 579.7,294.7 549.0,302.8 542.5,331.5 512.7,342.0 500.8,367.4 469.4,373.1 460.8,401.6 438.2,397.9 435.9,429.2 453.9,456.0 470.8,446.1 468.8,413.8 474.2,389.8 473.7,358.2 502.2,344.5 502.2,316.6 531.2,303.4 545.7,276.6 573.4,262.8 574.0,242.7 603.1,228.6 618.3,209.0 635.9,195.4 628.7,176.5 600.6,169.4 595.5,143.0 609.9,156.4 588.5,163.4 612.0,177.1 615.9,197.8 584.3,204.6 589.4,211.5 615.2,229.7 598.5,247.1 572.5,250.4 591.9,259.9 606.0,280.6 577.5,292.2 566.8,295.4 593.9,310.9 598.4,329.2 568.5,337.1 553.9,337.7 576.9,345.1 596.0,363.6 581.6,376.9 552.3,380.0 565.7,394.0 581.4,415.4 557.0,422.7 535.5,426.0 556.6,444.8 558.0,462.6 525.7,462.3 523.0,473.3 540.6,498.9 524.1,504.3 505.4,527.5 530.8,542.9 548.2,539.6 523.6,550.7 515.7,574.8 546.4,585.0 551.5,580.8 576.0,560.9 587.8,548.0 606.5,521.8 636.9,526.2 643.9,509.1 665.8,485.8 679.2,472.1 663.1,444.6 633.7,457.6 631.7,457.6 612.3,432.0 593.3,440.6 590.7,470.8 583.2,459.5 560.9,439.9 549.3,463.6 546.2,482.9 532.0,459.4 510.9,454.4 505.7,486.4 499.2,486.7 478.7,462.2 464.6,477.8 462.2,504.1 448.8,486.4 427.2,474.9 419.9,505.0 415.7,516.1" fill="none" stroke="#14b8a6" stroke-width="2.2" stroke-linecap="round" stroke-linejoin="round" opacity="0.9"/>
    <circle cx="448.1" cy="494.1" r="3.8" fill="rgb(26, 120, 191)" opacity="0.95" /><circle cx="419.2" cy="419.8" r="3.4" fill="rgb(20, 131, 168)" opacity="0.95" /><circle cx="453.5" cy="354.8" r="3.5" fill="rgb(22, 128, 175)" opacity="0.95" /><circle cx="456.5" cy="272.0" r="3.9" fill="rgb(27, 119, 194)" opacity="0.95" /><circle cx="401.3" cy="250.5" r="4.0" fill="rgb(28, 115, 201)" opacity="0.95" /><circle cx="352.0" cy="275.4" r="4.1" fill="rgb(30, 112, 207)" opacity="0.95" /><circle cx="400.0" cy="374.8" r="4.1" fill="rgb(29, 114, 204)" opacity="0.95" /><circle cx="376.4" cy="401.8" r="3.9" fill="rgb(27, 118, 195)" opacity="0.95" /><circle cx="368.1" cy="298.5" r="3.9" fill="rgb(27, 119, 194)" opacity="0.95" /><circle cx="330.3" cy="199.8" r="3.6" fill="rgb(23, 126, 180)" opacity="0.95" /><circle cx="375.4" cy="263.2" r="3.5" fill="rgb(23, 127, 177)" opacity="0.95" /><circle cx="330.2" cy="362.5" r="3.8" fill="rgb(26, 120, 190)" opacity="0.95" /><circle cx="255.0" cy="380.3" r="3.9" fill="rgb(27, 117, 197)" opacity="0.95" /><circle cx="282.6" cy="360.4" r="4.4" fill="rgb(33, 107, 218)" opacity="0.95" /><circle cx="320.5" cy="304.6" r="4.4" fill="rgb(33, 105, 222)" opacity="0.95" /><circle cx="270.6" cy="226.8" r="4.0" fill="rgb(28, 116, 200)" opacity="0.95" /><circle cx="291.4" cy="276.0" r="3.9" fill="rgb(27, 117, 196)" opacity="0.95" /><circle cx="245.5" cy="322.6" r="4.5" fill="rgb(34, 104, 224)" opacity="0.95" /><circle cx="248.5" cy="285.8" r="3.9" fill="rgb(27, 119, 194)" opacity="0.95" /><circle cx="303.0" cy="307.6" r="3.3" fill="rgb(20, 132, 167)" opacity="0.95" /><circle cx="227.7" cy="283.3" r="3.6" fill="rgb(23, 126, 179)" opacity="0.95" /><circle cx="158.7" cy="308.5" r="4.1" fill="rgb(30, 113, 206)" opacity="0.95" /><circle cx="158.8" cy="324.9" r="3.6" fill="rgb(24, 124, 182)" opacity="0.95" /><circle cx="222.6" cy="387.2" r="3.6" fill="rgb(23, 126, 179)" opacity="0.95" /><circle cx="308.3" cy="366.9" r="3.5" fill="rgb(22, 128, 176)" opacity="0.95" /><circle cx="392.9" cy="307.2" r="3.3" fill="rgb(20, 132, 166)" opacity="0.95" /><circle cx="489.4" cy="254.3" r="3.3" fill="rgb(20, 132, 167)" opacity="0.95" /><circle cx="437.0" cy="313.7" r="3.4" fill="rgb(21, 130, 172)" opacity="0.95" /><circle cx="390.1" cy="404.6" r="3.3" fill="rgb(19, 134, 163)" opacity="0.95" /><circle cx="394.6" cy="387.5" r="2.8" fill="rgb(14, 145, 141)" opacity="0.95" /><circle cx="458.5" cy="318.3" r="2.7" fill="rgb(13, 147, 137)" opacity="0.95" /><circle cx="521.4" cy="297.6" r="3.1" fill="rgb(17, 139, 154)" opacity="0.95" /><circle cx="531.8" cy="241.9" r="3.5" fill="rgb(22, 128, 174)" opacity="0.95" /><circle cx="582.0" cy="185.0" r="3.3" fill="rgb(20, 133, 165)" opacity="0.95" /><circle cx="547.7" cy="233.5" r="4.0" fill="rgb(28, 116, 199)" opacity="0.95" /><circle cx="497.0" cy="325.8" r="4.3" fill="rgb(32, 107, 217)" opacity="0.95" /><circle cx="503.6" cy="426.1" r="4.3" fill="rgb(32, 108, 216)" opacity="0.95" /><circle cx="545.1" cy="434.7" r="4.0" fill="rgb(29, 115, 202)" opacity="0.95" /><circle cx="588.6" cy="408.7" r="4.0" fill="rgb(28, 116, 199)" opacity="0.95" /><circle cx="641.0" cy="384.6" r="3.8" fill="rgb(25, 121, 189)" opacity="0.95" /><circle cx="681.0" cy="374.3" r="4.2" fill="rgb(30, 111, 209)" opacity="0.95" /><circle cx="675.2" cy="351.8" r="4.5" fill="rgb(34, 104, 224)" opacity="0.95" /><circle cx="700.6" cy="342.2" r="4.3" fill="rgb(31, 109, 213)" opacity="0.95" /><circle cx="732.6" cy="375.0" r="3.9" fill="rgb(27, 118, 195)" opacity="0.95" /><circle cx="718.2" cy="383.7" r="3.4" fill="rgb(21, 131, 169)" opacity="0.95" /><circle cx="623.8" cy="400.7" r="2.9" fill="rgb(15, 142, 146)" opacity="0.95" /><circle cx="527.0" cy="399.1" r="2.9" fill="rgb(15, 143, 145)" opacity="0.95" /><circle cx="629.1" cy="386.2" r="3.3" fill="rgb(20, 133, 165)" opacity="0.95" /><circle cx="723.5" cy="341.6" r="3.6" fill="rgb(23, 125, 181)" opacity="0.95" /><circle cx="757.1" cy="295.3" r="4.0" fill="rgb(29, 115, 202)" opacity="0.95" /><circle cx="668.1" cy="273.4" r="4.2" fill="rgb(31, 111, 210)" opacity="0.95" /><circle cx="669.4" cy="228.0" r="4.0" fill="rgb(28, 116, 200)" opacity="0.95" /><circle cx="740.8" cy="214.5" r="4.1" fill="rgb(29, 114, 203)" opacity="0.95" /><circle cx="746.7" cy="276.4" r="3.7" fill="rgb(24, 123, 185)" opacity="0.95" /><circle cx="654.2" cy="331.2" r="3.6" fill="rgb(23, 126, 179)" opacity="0.95" /><circle cx="559.4" cy="376.3" r="3.3" fill="rgb(20, 132, 166)" opacity="0.95" /><circle cx="511.5" cy="386.3" r="3.5" fill="rgb(23, 127, 177)" opacity="0.95" /><circle cx="597.0" cy="322.8" r="3.6" fill="rgb(23, 127, 178)" opacity="0.95" /><circle cx="693.8" cy="267.6" r="3.6" fill="rgb(24, 125, 181)" opacity="0.95" /><circle cx="767.1" cy="273.1" r="3.2" fill="rgb(19, 134, 162)" opacity="0.95" /><circle cx="676.0" cy="252.8" r="3.0" fill="rgb(16, 139, 152)" opacity="0.95" /><circle cx="643.3" cy="251.7" r="3.5" fill="rgb(23, 127, 177)" opacity="0.95" /><circle cx="549.0" cy="302.8" r="3.7" fill="rgb(24, 124, 183)" opacity="0.95" /><circle cx="469.4" cy="373.1" r="3.8" fill="rgb(26, 120, 191)" opacity="0.95" /><circle cx="453.9" cy="456.0" r="4.1" fill="rgb(29, 113, 205)" opacity="0.95" /><circle cx="473.7" cy="358.2" r="4.1" fill="rgb(29, 113, 205)" opacity="0.95" /><circle cx="545.7" cy="276.6" r="3.9" fill="rgb(27, 119, 194)" opacity="0.95" /><circle cx="618.3" cy="209.0" r="3.5" fill="rgb(22, 128, 175)" opacity="0.95" /><circle cx="595.5" cy="143.0" r="3.9" fill="rgb(27, 119, 194)" opacity="0.95" /><circle cx="615.9" cy="197.8" r="4.2" fill="rgb(30, 111, 209)" opacity="0.95" /><circle cx="598.5" cy="247.1" r="4.2" fill="rgb(31, 110, 211)" opacity="0.95" /><circle cx="577.5" cy="292.2" r="4.3" fill="rgb(32, 108, 215)" opacity="0.95" /><circle cx="568.5" cy="337.1" r="4.3" fill="rgb(32, 107, 216)" opacity="0.95" /><circle cx="581.6" cy="376.9" r="4.4" fill="rgb(33, 106, 219)" opacity="0.95" /><circle cx="557.0" cy="422.7" r="4.4" fill="rgb(33, 106, 219)" opacity="0.95" /><circle cx="525.7" cy="462.3" r="4.5" fill="rgb(34, 104, 223)" opacity="0.95" /><circle cx="505.4" cy="527.5" r="4.5" fill="rgb(34, 103, 224)" opacity="0.95" /><circle cx="515.7" cy="574.8" r="4.4" fill="rgb(33, 106, 220)" opacity="0.95" /><circle cx="587.8" cy="548.0" r="4.0" fill="rgb(28, 115, 201)" opacity="0.95" /><circle cx="665.8" cy="485.8" r="3.8" fill="rgb(25, 121, 189)" opacity="0.95" /><circle cx="631.7" cy="457.6" r="3.4" fill="rgb(21, 131, 170)" opacity="0.95" /><circle cx="583.2" cy="459.5" r="3.3" fill="rgb(19, 134, 163)" opacity="0.95" /><circle cx="532.0" cy="459.4" r="3.2" fill="rgb(18, 136, 159)" opacity="0.95" /><circle cx="478.7" cy="462.2" r="3.2" fill="rgb(18, 136, 158)" opacity="0.95" /><circle cx="427.2" cy="474.9" r="3.2" fill="rgb(18, 136, 159)" opacity="0.95" />
  </g>
</svg>
